%TF.GenerationSoftware,KiCad,Pcbnew,7.0.5-7.0.5~ubuntu20.04.1*%
%TF.CreationDate,2023-07-11T16:02:29+02:00*%
%TF.ProjectId,drone_launcher,64726f6e-655f-46c6-9175-6e636865722e,V1.0*%
%TF.SameCoordinates,Original*%
%TF.FileFunction,Copper,L1,Top*%
%TF.FilePolarity,Positive*%
%FSLAX46Y46*%
G04 Gerber Fmt 4.6, Leading zero omitted, Abs format (unit mm)*
G04 Created by KiCad (PCBNEW 7.0.5-7.0.5~ubuntu20.04.1) date 2023-07-11 16:02:29*
%MOMM*%
%LPD*%
G01*
G04 APERTURE LIST*
G04 Aperture macros list*
%AMRoundRect*
0 Rectangle with rounded corners*
0 $1 Rounding radius*
0 $2 $3 $4 $5 $6 $7 $8 $9 X,Y pos of 4 corners*
0 Add a 4 corners polygon primitive as box body*
4,1,4,$2,$3,$4,$5,$6,$7,$8,$9,$2,$3,0*
0 Add four circle primitives for the rounded corners*
1,1,$1+$1,$2,$3*
1,1,$1+$1,$4,$5*
1,1,$1+$1,$6,$7*
1,1,$1+$1,$8,$9*
0 Add four rect primitives between the rounded corners*
20,1,$1+$1,$2,$3,$4,$5,0*
20,1,$1+$1,$4,$5,$6,$7,0*
20,1,$1+$1,$6,$7,$8,$9,0*
20,1,$1+$1,$8,$9,$2,$3,0*%
G04 Aperture macros list end*
%TA.AperFunction,ComponentPad*%
%ADD10RoundRect,0.250000X-0.725000X0.600000X-0.725000X-0.600000X0.725000X-0.600000X0.725000X0.600000X0*%
%TD*%
%TA.AperFunction,ComponentPad*%
%ADD11O,1.950000X1.700000*%
%TD*%
%TA.AperFunction,ComponentPad*%
%ADD12RoundRect,0.250000X-0.600000X-0.725000X0.600000X-0.725000X0.600000X0.725000X-0.600000X0.725000X0*%
%TD*%
%TA.AperFunction,ComponentPad*%
%ADD13O,1.700000X1.950000*%
%TD*%
%TA.AperFunction,ComponentPad*%
%ADD14C,1.524000*%
%TD*%
%TA.AperFunction,ComponentPad*%
%ADD15RoundRect,0.250000X0.600000X0.725000X-0.600000X0.725000X-0.600000X-0.725000X0.600000X-0.725000X0*%
%TD*%
%TA.AperFunction,ComponentPad*%
%ADD16R,1.500000X2.500000*%
%TD*%
%TA.AperFunction,ComponentPad*%
%ADD17O,1.500000X2.500000*%
%TD*%
%TA.AperFunction,SMDPad,CuDef*%
%ADD18RoundRect,0.250000X-0.325000X-0.650000X0.325000X-0.650000X0.325000X0.650000X-0.325000X0.650000X0*%
%TD*%
%TA.AperFunction,SMDPad,CuDef*%
%ADD19RoundRect,0.250000X-0.625000X0.312500X-0.625000X-0.312500X0.625000X-0.312500X0.625000X0.312500X0*%
%TD*%
%TA.AperFunction,SMDPad,CuDef*%
%ADD20RoundRect,0.250000X0.625000X-0.375000X0.625000X0.375000X-0.625000X0.375000X-0.625000X-0.375000X0*%
%TD*%
%TA.AperFunction,ComponentPad*%
%ADD21C,6.000000*%
%TD*%
%TA.AperFunction,ComponentPad*%
%ADD22R,6.000000X6.000000*%
%TD*%
%TA.AperFunction,SMDPad,CuDef*%
%ADD23RoundRect,0.250000X0.625000X-0.312500X0.625000X0.312500X-0.625000X0.312500X-0.625000X-0.312500X0*%
%TD*%
%TA.AperFunction,ComponentPad*%
%ADD24R,1.600000X1.600000*%
%TD*%
%TA.AperFunction,ComponentPad*%
%ADD25C,1.600000*%
%TD*%
%TA.AperFunction,SMDPad,CuDef*%
%ADD26RoundRect,0.250000X-0.375000X-0.625000X0.375000X-0.625000X0.375000X0.625000X-0.375000X0.625000X0*%
%TD*%
%TA.AperFunction,ComponentPad*%
%ADD27RoundRect,0.250000X-0.600000X-0.750000X0.600000X-0.750000X0.600000X0.750000X-0.600000X0.750000X0*%
%TD*%
%TA.AperFunction,ComponentPad*%
%ADD28O,1.700000X2.000000*%
%TD*%
%TA.AperFunction,ComponentPad*%
%ADD29RoundRect,0.250000X0.600000X0.750000X-0.600000X0.750000X-0.600000X-0.750000X0.600000X-0.750000X0*%
%TD*%
%TA.AperFunction,SMDPad,CuDef*%
%ADD30RoundRect,0.250000X-0.312500X-0.625000X0.312500X-0.625000X0.312500X0.625000X-0.312500X0.625000X0*%
%TD*%
%TA.AperFunction,ViaPad*%
%ADD31C,0.700000*%
%TD*%
%TA.AperFunction,Conductor*%
%ADD32C,0.500000*%
%TD*%
%TA.AperFunction,Conductor*%
%ADD33C,0.300000*%
%TD*%
G04 APERTURE END LIST*
D10*
%TO.P,J7,1,Pin_1*%
%TO.N,GND*%
X203217000Y-115864000D03*
D11*
%TO.P,J7,2,Pin_2*%
%TO.N,/LEDS_DRONE*%
X203217000Y-118364000D03*
%TO.P,J7,3,Pin_3*%
%TO.N,+5V*%
X203217000Y-120864000D03*
%TD*%
D12*
%TO.P,J14,1,Pin_1*%
%TO.N,/F1R2_TOP_SW*%
X143456000Y-64008000D03*
D13*
%TO.P,J14,2,Pin_2*%
%TO.N,GND*%
X145956000Y-64008000D03*
%TO.P,J14,3,Pin_3*%
%TO.N,/F1R2_SAFETY_SW*%
X148456000Y-64008000D03*
%TO.P,J14,4,Pin_4*%
%TO.N,GND*%
X150956000Y-64008000D03*
%TO.P,J14,5,Pin_5*%
%TO.N,/F1R2_BOTM_SW*%
X153456000Y-64008000D03*
%TO.P,J14,6,Pin_6*%
%TO.N,GND*%
X155956000Y-64008000D03*
%TD*%
D12*
%TO.P,J11,1,Pin_1*%
%TO.N,+5V*%
X96012000Y-92964000D03*
D13*
%TO.P,J11,2,Pin_2*%
%TO.N,/SDA*%
X98512000Y-92964000D03*
%TO.P,J11,3,Pin_3*%
%TO.N,/SCL*%
X101012000Y-92964000D03*
%TO.P,J11,4,Pin_4*%
%TO.N,GND*%
X103512000Y-92964000D03*
%TD*%
D14*
%TO.P,U3,1,Vin*%
%TO.N,+5V*%
X144526000Y-88138000D03*
%TO.P,U3,2,GND*%
%TO.N,GND*%
X147066000Y-88138000D03*
%TO.P,U3,3,SCL*%
%TO.N,/SCL*%
X149606000Y-88138000D03*
%TO.P,U3,4,SDA*%
%TO.N,/SDA*%
X152146000Y-88138000D03*
%TO.P,U3,5,RST*%
%TO.N,/RST_MCP*%
X154686000Y-88138000D03*
%TO.P,U3,6,A0*%
%TO.N,/F2R1_BOTM_SW*%
X157226000Y-88138000D03*
%TO.P,U3,7,A1*%
%TO.N,/F2R2_TOP_SW*%
X159766000Y-88138000D03*
%TO.P,U3,8,A2*%
%TO.N,/F2R2_SAFETY_SW*%
X162306000Y-88138000D03*
%TO.P,U3,9,A3*%
%TO.N,/F2R2_BOTM_SW*%
X164846000Y-88138000D03*
%TO.P,U3,10,A4*%
%TO.N,/F3R1_TOP_SW*%
X167386000Y-88138000D03*
%TO.P,U3,11,A5*%
%TO.N,/F3R1_SAFETY_SW*%
X169926000Y-88138000D03*
%TO.P,U3,12,A6*%
%TO.N,/F3R1_BOTM_SW*%
X172466000Y-88138000D03*
%TO.P,U3,13,A7*%
%TO.N,/F3R2_TOP_SW*%
X175006000Y-88138000D03*
%TO.P,U3,14,IA*%
%TO.N,unconnected-(U3-IA-Pad14)*%
X144526000Y-75438000D03*
%TO.P,U3,15,IB*%
%TO.N,unconnected-(U3-IB-Pad15)*%
X147066000Y-75438000D03*
%TO.P,U3,16,D0*%
%TO.N,unconnected-(U3-D0-Pad16)*%
X149606000Y-75438000D03*
%TO.P,U3,17,D1*%
%TO.N,unconnected-(U3-D1-Pad17)*%
X152146000Y-75438000D03*
%TO.P,U3,18,D2*%
%TO.N,unconnected-(U3-D2-Pad18)*%
X154686000Y-75438000D03*
%TO.P,U3,19,B7*%
%TO.N,/F1R1_TOP_SW*%
X157226000Y-75438000D03*
%TO.P,U3,20,B6*%
%TO.N,/F1R1_SAFETY_SW*%
X159766000Y-75438000D03*
%TO.P,U3,21,B5*%
%TO.N,/F1R1_BOTM_SW*%
X162306000Y-75438000D03*
%TO.P,U3,22,B4*%
%TO.N,/F1R2_TOP_SW*%
X164846000Y-75438000D03*
%TO.P,U3,23,B3*%
%TO.N,/F1R2_SAFETY_SW*%
X167386000Y-75438000D03*
%TO.P,U3,24,B2*%
%TO.N,/F1R2_BOTM_SW*%
X169926000Y-75438000D03*
%TO.P,U3,25,B1*%
%TO.N,/F2_R1_TOP_SW*%
X172466000Y-75438000D03*
%TO.P,U3,26,B0*%
%TO.N,/F2R1_SAFETY_SW*%
X175006000Y-75438000D03*
%TD*%
D15*
%TO.P,J2,1,Pin_1*%
%TO.N,/F2R2_SAFETY_SERVO*%
X128912000Y-129540000D03*
D13*
%TO.P,J2,2,Pin_2*%
%TO.N,/F2R1_SAFETY_SERVO*%
X126412000Y-129540000D03*
%TO.P,J2,3,Pin_3*%
%TO.N,/F2R2_TRIGGER_SERVO*%
X123912000Y-129540000D03*
%TO.P,J2,4,Pin_4*%
%TO.N,/F2R1_TRIGGER_SERVO*%
X121412000Y-129540000D03*
%TD*%
D16*
%TO.P,U1,1,Vin*%
%TO.N,+24V*%
X115062000Y-80772000D03*
D17*
%TO.P,U1,2,GND*%
%TO.N,GND*%
X117602000Y-80772000D03*
%TO.P,U1,3,Vout*%
%TO.N,+5V*%
X120142000Y-80772000D03*
%TD*%
D10*
%TO.P,J18,1,Pin_1*%
%TO.N,/F3R2_TOP_SW*%
X203200000Y-94100000D03*
D11*
%TO.P,J18,2,Pin_2*%
%TO.N,GND*%
X203200000Y-96600000D03*
%TO.P,J18,3,Pin_3*%
%TO.N,/F3R2_SAFETY_SW*%
X203200000Y-99100000D03*
%TO.P,J18,4,Pin_4*%
%TO.N,GND*%
X203200000Y-101600000D03*
%TO.P,J18,5,Pin_5*%
%TO.N,/F3R2_BOTM_SW*%
X203200000Y-104100000D03*
%TO.P,J18,6,Pin_6*%
%TO.N,GND*%
X203200000Y-106600000D03*
%TD*%
D15*
%TO.P,J1,1,Pin_1*%
%TO.N,/F1R2_SAFETY_SERVO*%
X113926000Y-129540000D03*
D13*
%TO.P,J1,2,Pin_2*%
%TO.N,/F1R1_SAFETY_SERVO*%
X111426000Y-129540000D03*
%TO.P,J1,3,Pin_3*%
%TO.N,/F1R2_TRIGGER_SERVO*%
X108926000Y-129540000D03*
%TO.P,J1,4,Pin_4*%
%TO.N,/F1R1_TRIGGER_SERVO*%
X106426000Y-129540000D03*
%TD*%
D12*
%TO.P,J10,1,Pin_1*%
%TO.N,+5V*%
X95798000Y-84582000D03*
D13*
%TO.P,J10,2,Pin_2*%
%TO.N,/SDA*%
X98298000Y-84582000D03*
%TO.P,J10,3,Pin_3*%
%TO.N,/SCL*%
X100798000Y-84582000D03*
%TO.P,J10,4,Pin_4*%
%TO.N,GND*%
X103298000Y-84582000D03*
%TD*%
D12*
%TO.P,J19,1,Pin_1*%
%TO.N,+5V*%
X96132000Y-112014000D03*
D13*
%TO.P,J19,2,Pin_2*%
%TO.N,/GPS_RX*%
X98632000Y-112014000D03*
%TO.P,J19,3,Pin_3*%
%TO.N,/GPS_TX*%
X101132000Y-112014000D03*
%TO.P,J19,4,Pin_4*%
%TO.N,/SDA*%
X103632000Y-112014000D03*
%TO.P,J19,5,Pin_5*%
%TO.N,/SCL*%
X106132000Y-112014000D03*
%TO.P,J19,6,Pin_6*%
%TO.N,GND*%
X108632000Y-112014000D03*
%TD*%
D10*
%TO.P,J17,1,Pin_1*%
%TO.N,/F3R1_TOP_SW*%
X203454000Y-71708000D03*
D11*
%TO.P,J17,2,Pin_2*%
%TO.N,GND*%
X203454000Y-74208000D03*
%TO.P,J17,3,Pin_3*%
%TO.N,/F3R1_SAFETY_SW*%
X203454000Y-76708000D03*
%TO.P,J17,4,Pin_4*%
%TO.N,GND*%
X203454000Y-79208000D03*
%TO.P,J17,5,Pin_5*%
%TO.N,/F3R1_BOTM_SW*%
X203454000Y-81708000D03*
%TO.P,J17,6,Pin_6*%
%TO.N,GND*%
X203454000Y-84208000D03*
%TD*%
D18*
%TO.P,C1,1*%
%TO.N,/BAT_MEAS*%
X126287000Y-92456000D03*
%TO.P,C1,2*%
%TO.N,GND*%
X129237000Y-92456000D03*
%TD*%
D12*
%TO.P,J8,1,Pin_1*%
%TO.N,/SPI_SCK*%
X96092000Y-120142000D03*
D13*
%TO.P,J8,2,Pin_2*%
%TO.N,/SPI_MOSI*%
X98592000Y-120142000D03*
%TO.P,J8,3,Pin_3*%
%TO.N,/SPI_MISO*%
X101092000Y-120142000D03*
%TO.P,J8,4,Pin_4*%
%TO.N,/SPI_CS*%
X103592000Y-120142000D03*
%TD*%
D15*
%TO.P,J4,1,Pin_1*%
%TO.N,GND*%
X157146000Y-129540000D03*
D13*
%TO.P,J4,2,Pin_2*%
%TO.N,/LEDS_BAT_IND*%
X154646000Y-129540000D03*
%TO.P,J4,3,Pin_3*%
%TO.N,+5V*%
X152146000Y-129540000D03*
%TD*%
D19*
%TO.P,R6,1*%
%TO.N,Net-(D4-K)*%
X181356000Y-108900500D03*
%TO.P,R6,2*%
%TO.N,GND*%
X181356000Y-111825500D03*
%TD*%
D20*
%TO.P,D4,1,K*%
%TO.N,Net-(D4-K)*%
X181356000Y-106683000D03*
%TO.P,D4,2,A*%
%TO.N,/LED_DBG*%
X181356000Y-103883000D03*
%TD*%
D21*
%TO.P,J20,N,NEG*%
%TO.N,GND*%
X113836000Y-66548000D03*
D22*
%TO.P,J20,P,POS*%
%TO.N,+24V*%
X106636000Y-66548000D03*
%TD*%
D19*
%TO.P,R7,1*%
%TO.N,Net-(D5-K)*%
X185166000Y-108900500D03*
%TO.P,R7,2*%
%TO.N,GND*%
X185166000Y-111825500D03*
%TD*%
D12*
%TO.P,J15,1,Pin_1*%
%TO.N,/F2_R1_TOP_SW*%
X163442000Y-64008000D03*
D13*
%TO.P,J15,2,Pin_2*%
%TO.N,GND*%
X165942000Y-64008000D03*
%TO.P,J15,3,Pin_3*%
%TO.N,/F2R1_SAFETY_SW*%
X168442000Y-64008000D03*
%TO.P,J15,4,Pin_4*%
%TO.N,GND*%
X170942000Y-64008000D03*
%TO.P,J15,5,Pin_5*%
%TO.N,/F2R1_BOTM_SW*%
X173442000Y-64008000D03*
%TO.P,J15,6,Pin_6*%
%TO.N,GND*%
X175942000Y-64008000D03*
%TD*%
D12*
%TO.P,J13,1,Pin_1*%
%TO.N,/F1R1_TOP_SW*%
X123644000Y-64008000D03*
D13*
%TO.P,J13,2,Pin_2*%
%TO.N,GND*%
X126144000Y-64008000D03*
%TO.P,J13,3,Pin_3*%
%TO.N,/F1R1_SAFETY_SW*%
X128644000Y-64008000D03*
%TO.P,J13,4,Pin_4*%
%TO.N,GND*%
X131144000Y-64008000D03*
%TO.P,J13,5,Pin_5*%
%TO.N,/F1R1_BOTM_SW*%
X133644000Y-64008000D03*
%TO.P,J13,6,Pin_6*%
%TO.N,GND*%
X136144000Y-64008000D03*
%TD*%
D20*
%TO.P,D5,1,K*%
%TO.N,Net-(D5-K)*%
X185166000Y-106683000D03*
%TO.P,D5,2,A*%
%TO.N,/LED_ALIVE*%
X185166000Y-103883000D03*
%TD*%
D12*
%TO.P,J16,1,Pin_1*%
%TO.N,/F2R2_TOP_SW*%
X183468000Y-64008000D03*
D13*
%TO.P,J16,2,Pin_2*%
%TO.N,GND*%
X185968000Y-64008000D03*
%TO.P,J16,3,Pin_3*%
%TO.N,/F2R2_SAFETY_SW*%
X188468000Y-64008000D03*
%TO.P,J16,4,Pin_4*%
%TO.N,GND*%
X190968000Y-64008000D03*
%TO.P,J16,5,Pin_5*%
%TO.N,/F2R2_BOTM_SW*%
X193468000Y-64008000D03*
%TO.P,J16,6,Pin_6*%
%TO.N,GND*%
X195968000Y-64008000D03*
%TD*%
D15*
%TO.P,J3,1,Pin_1*%
%TO.N,/F3R2_SAFETY_SERVO*%
X144152000Y-129540000D03*
D13*
%TO.P,J3,2,Pin_2*%
%TO.N,/F3R1_SAFETY_SERVO*%
X141652000Y-129540000D03*
%TO.P,J3,3,Pin_3*%
%TO.N,/F3R2_TRIGGER_SERVO*%
X139152000Y-129540000D03*
%TO.P,J3,4,Pin_4*%
%TO.N,/F3R1_TRIGGER_SERVO*%
X136652000Y-129540000D03*
%TD*%
D23*
%TO.P,R3,1*%
%TO.N,Net-(D1-K)*%
X112151000Y-91694000D03*
%TO.P,R3,2*%
%TO.N,GND*%
X112151000Y-88769000D03*
%TD*%
D24*
%TO.P,U2,1,GND*%
%TO.N,GND*%
X118491000Y-111633000D03*
D25*
%TO.P,U2,2,0_RX1_CRX2_CS1*%
%TO.N,/SPI_CS*%
X121031000Y-111633000D03*
%TO.P,U2,3,1_TX1_CTX2_MISO1*%
%TO.N,/SPI_MISO*%
X123571000Y-111633000D03*
%TO.P,U2,4,2_OUT2*%
%TO.N,/F1R1_TRIGGER_SERVO*%
X126111000Y-111633000D03*
%TO.P,U2,5,3_LRCLK2*%
%TO.N,/F1R2_TRIGGER_SERVO*%
X128651000Y-111633000D03*
%TO.P,U2,6,4_BCLK2*%
%TO.N,/F1R1_SAFETY_SERVO*%
X131191000Y-111633000D03*
%TO.P,U2,7,5_IN2*%
%TO.N,/F1R2_SAFETY_SERVO*%
X133731000Y-111633000D03*
%TO.P,U2,8,6_OUT1D*%
%TO.N,/F2R1_TRIGGER_SERVO*%
X136271000Y-111633000D03*
%TO.P,U2,9,7_RX2_OUT1A*%
%TO.N,/F2R2_TRIGGER_SERVO*%
X138811000Y-111633000D03*
%TO.P,U2,10,8_TX2_IN1*%
%TO.N,/F2R1_SAFETY_SERVO*%
X141351000Y-111633000D03*
%TO.P,U2,11,9_OUT1C*%
%TO.N,/F2R2_SAFETY_SERVO*%
X143891000Y-111633000D03*
%TO.P,U2,12,10_CS_MQSR*%
%TO.N,/F3R1_TRIGGER_SERVO*%
X146431000Y-111633000D03*
%TO.P,U2,13,11_MOSI_CTX1*%
%TO.N,/F3R2_TRIGGER_SERVO*%
X148971000Y-111633000D03*
%TO.P,U2,14,12_MISO_MQSL*%
%TO.N,/F3R1_SAFETY_SERVO*%
X151511000Y-111633000D03*
%TO.P,U2,15,3V3*%
%TO.N,unconnected-(U2-3V3-Pad15)*%
X154051000Y-111633000D03*
%TO.P,U2,16,24_A10_TX6_SCL2*%
%TO.N,/F3R2_SAFETY_SERVO*%
X156591000Y-111633000D03*
%TO.P,U2,17,25_A11_RX6_SDA2*%
%TO.N,/LEDS_BAT_IND*%
X159131000Y-111633000D03*
%TO.P,U2,18,26_A12_MOSI1*%
%TO.N,/SPI_MOSI*%
X161671000Y-111633000D03*
%TO.P,U2,19,27_A13_SCK1*%
%TO.N,/SPI_SCK*%
X164211000Y-111633000D03*
%TO.P,U2,20,28_RX7*%
%TO.N,/MENU1_SW*%
X166751000Y-111633000D03*
%TO.P,U2,21,29_TX7*%
%TO.N,/MENU2_SW*%
X169291000Y-111633000D03*
%TO.P,U2,22,30_CRX3*%
%TO.N,/MENU3_SW*%
X171831000Y-111633000D03*
%TO.P,U2,23,31_CTX3*%
%TO.N,/MENU4_SW*%
X174371000Y-111633000D03*
%TO.P,U2,24,32_OUT1B*%
%TO.N,/ARM_SW*%
X176911000Y-111633000D03*
%TO.P,U2,25,33_MCLK2*%
%TO.N,/LEDS_DRONE*%
X176911000Y-96393000D03*
%TO.P,U2,26,34_RX8*%
%TO.N,/F3R2_BOTM_SW*%
X174371000Y-96393000D03*
%TO.P,U2,27,35_TX8*%
%TO.N,/F3R2_SAFETY_SW*%
X171831000Y-96393000D03*
%TO.P,U2,28,36_CS*%
%TO.N,/LED_ALIVE*%
X169291000Y-96393000D03*
%TO.P,U2,29,37_CS*%
%TO.N,/LED_DBG*%
X166751000Y-96393000D03*
%TO.P,U2,30,38_CS1_IN1*%
%TO.N,unconnected-(U2-38_CS1_IN1-Pad30)*%
X164211000Y-96393000D03*
%TO.P,U2,31,39_MISO1_OUT1A*%
%TO.N,unconnected-(U2-39_MISO1_OUT1A-Pad31)*%
X161671000Y-96393000D03*
%TO.P,U2,32,40_A16*%
%TO.N,unconnected-(U2-40_A16-Pad32)*%
X159131000Y-96393000D03*
%TO.P,U2,33,41_A17*%
%TO.N,unconnected-(U2-41_A17-Pad33)*%
X156591000Y-96393000D03*
%TO.P,U2,34,GND*%
%TO.N,GND*%
X154051000Y-96393000D03*
%TO.P,U2,35,13_SCK_LED*%
%TO.N,unconnected-(U2-13_SCK_LED-Pad35)*%
X151511000Y-96393000D03*
%TO.P,U2,36,14_A0_TX3_SPDIF_OUT*%
%TO.N,/RST_MCP*%
X148971000Y-96393000D03*
%TO.P,U2,37,15_A1_RX3_SPDIF_IN*%
%TO.N,unconnected-(U2-15_A1_RX3_SPDIF_IN-Pad37)*%
X146431000Y-96393000D03*
%TO.P,U2,38,16_A2_RX4_SCL1*%
%TO.N,unconnected-(U2-16_A2_RX4_SCL1-Pad38)*%
X143891000Y-96393000D03*
%TO.P,U2,39,17_A3_TX4_SDA1*%
%TO.N,unconnected-(U2-17_A3_TX4_SDA1-Pad39)*%
X141351000Y-96393000D03*
%TO.P,U2,40,18_A4_SDA*%
%TO.N,/SDA*%
X138811000Y-96393000D03*
%TO.P,U2,41,19_A5_SCL*%
%TO.N,/SCL*%
X136271000Y-96393000D03*
%TO.P,U2,42,20_A6_TX5_LRCLK1*%
%TO.N,/GPS_TX*%
X133731000Y-96393000D03*
%TO.P,U2,43,21_A7_RX5_BCLK1*%
%TO.N,/GPS_RX*%
X131191000Y-96393000D03*
%TO.P,U2,44,22_A8_CTX1*%
%TO.N,unconnected-(U2-22_A8_CTX1-Pad44)*%
X128651000Y-96393000D03*
%TO.P,U2,45,23_A9_CRX1_MCLK1*%
%TO.N,/BAT_MEAS*%
X126111000Y-96393000D03*
%TO.P,U2,46,3V3*%
%TO.N,unconnected-(U2-3V3-Pad46)*%
X123571000Y-96393000D03*
%TO.P,U2,47,GND*%
%TO.N,GND*%
X121031000Y-96393000D03*
%TO.P,U2,48,VIN*%
%TO.N,+5V*%
X118491000Y-96393000D03*
%TD*%
D26*
%TO.P,D1,1,K*%
%TO.N,Net-(D1-K)*%
X115310000Y-91694000D03*
%TO.P,D1,2,A*%
%TO.N,+5V*%
X118110000Y-91694000D03*
%TD*%
D19*
%TO.P,R1,1*%
%TO.N,+24V*%
X126238000Y-77023500D03*
%TO.P,R1,2*%
%TO.N,/BAT_MEAS*%
X126238000Y-79948500D03*
%TD*%
D27*
%TO.P,J9,1,Pin_1*%
%TO.N,/SDA*%
X95758000Y-75946000D03*
D28*
%TO.P,J9,2,Pin_2*%
%TO.N,/SCL*%
X98258000Y-75946000D03*
%TD*%
D15*
%TO.P,J5,1,Pin_1*%
%TO.N,GND*%
X182386000Y-129540000D03*
D13*
%TO.P,J5,2,Pin_2*%
%TO.N,/MENU4_SW*%
X179886000Y-129540000D03*
%TO.P,J5,3,Pin_3*%
%TO.N,GND*%
X177386000Y-129540000D03*
%TO.P,J5,4,Pin_4*%
%TO.N,/MENU3_SW*%
X174886000Y-129540000D03*
%TO.P,J5,5,Pin_5*%
%TO.N,GND*%
X172386000Y-129540000D03*
%TO.P,J5,6,Pin_6*%
%TO.N,/MENU2_SW*%
X169886000Y-129540000D03*
%TO.P,J5,7,Pin_7*%
%TO.N,GND*%
X167386000Y-129540000D03*
%TO.P,J5,8,Pin_8*%
%TO.N,/MENU1_SW*%
X164886000Y-129540000D03*
%TD*%
D29*
%TO.P,J6,1,Pin_1*%
%TO.N,GND*%
X193802000Y-129540000D03*
D28*
%TO.P,J6,2,Pin_2*%
%TO.N,/ARM_SW*%
X191302000Y-129540000D03*
%TD*%
D30*
%TO.P,R2,1*%
%TO.N,/BAT_MEAS*%
X126234000Y-83820000D03*
%TO.P,R2,2*%
%TO.N,GND*%
X129159000Y-83820000D03*
%TD*%
D31*
%TO.N,GND*%
X130810000Y-92456000D03*
X131254500Y-83820000D03*
X187198000Y-111760000D03*
X112151000Y-86991000D03*
X118364000Y-114046000D03*
X108712000Y-107950000D03*
%TO.N,+5V*%
X103378000Y-97790000D03*
X124460000Y-88138000D03*
X96012000Y-97790000D03*
X128016000Y-88138000D03*
%TO.N,/SCL*%
X106934000Y-105664000D03*
X101092000Y-99822000D03*
%TO.N,/SDA*%
X102616000Y-106172000D03*
X98552000Y-102108000D03*
X136652000Y-102362000D03*
X132080000Y-102362000D03*
%TD*%
D32*
%TO.N,+24V*%
X115062000Y-78994000D02*
X117032500Y-77023500D01*
X115062000Y-80772000D02*
X115062000Y-78994000D01*
X117032500Y-77023500D02*
X126238000Y-77023500D01*
%TO.N,GND*%
X118491000Y-113919000D02*
X118364000Y-114046000D01*
X129237000Y-92456000D02*
X130810000Y-92456000D01*
X181356000Y-111825500D02*
X185166000Y-111825500D01*
X112151000Y-88769000D02*
X112151000Y-86991000D01*
X118491000Y-111633000D02*
X118491000Y-113919000D01*
X108676000Y-112043000D02*
X108676000Y-107986000D01*
X187132500Y-111825500D02*
X187198000Y-111760000D01*
X129349500Y-83820000D02*
X131254500Y-83820000D01*
X185166000Y-111825500D02*
X187132500Y-111825500D01*
X108676000Y-107986000D02*
X108712000Y-107950000D01*
%TO.N,+5V*%
X96132000Y-112014000D02*
X96012000Y-111894000D01*
X96132000Y-113418000D02*
X92456000Y-117094000D01*
X96012000Y-92964000D02*
X96012000Y-84796000D01*
X96132000Y-112014000D02*
X96132000Y-113418000D01*
X124460000Y-88138000D02*
X121920000Y-88138000D01*
X96012000Y-84796000D02*
X95798000Y-84582000D01*
X149098000Y-132588000D02*
X103378000Y-132588000D01*
X203217000Y-120864000D02*
X203217000Y-123935000D01*
X203217000Y-123935000D02*
X194310000Y-132842000D01*
X96012000Y-111894000D02*
X96012000Y-97790000D01*
X92456000Y-117094000D02*
X92456000Y-121666000D01*
X103378000Y-132588000D02*
X103251000Y-132461000D01*
X118491000Y-96393000D02*
X104775000Y-96393000D01*
X152146000Y-129540000D02*
X149098000Y-132588000D01*
X104775000Y-96393000D02*
X103378000Y-97790000D01*
X92456000Y-121666000D02*
X103251000Y-132461000D01*
X155448000Y-132842000D02*
X152146000Y-129540000D01*
X96012000Y-97790000D02*
X96012000Y-92964000D01*
X194310000Y-132842000D02*
X155448000Y-132842000D01*
X144526000Y-88138000D02*
X128016000Y-88138000D01*
D33*
%TO.N,/F1R2_SAFETY_SERVO*%
X118872000Y-127762000D02*
X115316000Y-127762000D01*
X133731000Y-111633000D02*
X133731000Y-112903000D01*
X115316000Y-127762000D02*
X113926000Y-129152000D01*
X113926000Y-129152000D02*
X113926000Y-129540000D01*
X133731000Y-112903000D02*
X118872000Y-127762000D01*
%TO.N,/F1R1_SAFETY_SERVO*%
X131191000Y-111633000D02*
X131191000Y-112903000D01*
X131191000Y-112903000D02*
X117348000Y-126746000D01*
X117348000Y-126746000D02*
X114220000Y-126746000D01*
X114220000Y-126746000D02*
X111426000Y-129540000D01*
%TO.N,/SCL*%
X106172000Y-108966000D02*
X106176000Y-108970000D01*
X100798000Y-82002000D02*
X98258000Y-79462000D01*
X136271000Y-96393000D02*
X139700000Y-92964000D01*
X136271000Y-96393000D02*
X136271000Y-100457000D01*
X100798000Y-84582000D02*
X100798000Y-82002000D01*
X133096000Y-103632000D02*
X110490000Y-103632000D01*
X98258000Y-79462000D02*
X98258000Y-75946000D01*
X101012000Y-92964000D02*
X101012000Y-99742000D01*
X139700000Y-92964000D02*
X144780000Y-92964000D01*
X106934000Y-105664000D02*
X107696000Y-106426000D01*
X106176000Y-108970000D02*
X106176000Y-112043000D01*
X106172000Y-111369056D02*
X106172000Y-108966000D01*
X110490000Y-103632000D02*
X107696000Y-106426000D01*
X144780000Y-92964000D02*
X149606000Y-88138000D01*
X101012000Y-84796000D02*
X100798000Y-84582000D01*
X136271000Y-100457000D02*
X133096000Y-103632000D01*
X107696000Y-106426000D02*
X106172000Y-107950000D01*
X106172000Y-108966000D02*
X106172000Y-107950000D01*
X101012000Y-92964000D02*
X101012000Y-84796000D01*
X101012000Y-99742000D02*
X101092000Y-99822000D01*
%TO.N,/SDA*%
X136652000Y-102362000D02*
X137414000Y-102362000D01*
X103676000Y-107232000D02*
X108546000Y-102362000D01*
X98512000Y-102068000D02*
X98552000Y-102108000D01*
X138811000Y-100965000D02*
X138811000Y-96393000D01*
X152146000Y-88138000D02*
X145796000Y-94488000D01*
X140716000Y-94488000D02*
X138811000Y-96393000D01*
X103676000Y-108922000D02*
X103676000Y-112043000D01*
X108546000Y-102362000D02*
X132080000Y-102362000D01*
X98512000Y-92964000D02*
X98512000Y-84796000D01*
X98512000Y-92964000D02*
X98512000Y-102068000D01*
X145796000Y-94488000D02*
X140716000Y-94488000D01*
X103676000Y-108922000D02*
X103676000Y-107232000D01*
X98298000Y-82804000D02*
X95758000Y-80264000D01*
X137414000Y-102362000D02*
X138811000Y-100965000D01*
X98512000Y-84796000D02*
X98298000Y-84582000D01*
X95758000Y-80264000D02*
X95758000Y-75946000D01*
X98298000Y-84582000D02*
X98298000Y-82804000D01*
X102616000Y-106172000D02*
X103676000Y-107232000D01*
%TO.N,/F1R2_TRIGGER_SERVO*%
X116078000Y-125476000D02*
X112990000Y-125476000D01*
X112990000Y-125476000D02*
X108926000Y-129540000D01*
X128651000Y-111633000D02*
X128651000Y-112903000D01*
X128651000Y-112903000D02*
X116078000Y-125476000D01*
%TO.N,/F1R1_TRIGGER_SERVO*%
X115316000Y-123952000D02*
X112014000Y-123952000D01*
X126111000Y-111633000D02*
X126111000Y-113157000D01*
X112014000Y-123952000D02*
X106426000Y-129540000D01*
X126111000Y-113157000D02*
X115316000Y-123952000D01*
%TO.N,/SPI_CS*%
X121031000Y-113411000D02*
X121031000Y-111633000D01*
X103592000Y-120142000D02*
X114300000Y-120142000D01*
X114300000Y-120142000D02*
X114427000Y-120015000D01*
X114427000Y-120015000D02*
X121031000Y-113411000D01*
%TO.N,/SPI_MISO*%
X123571000Y-113157000D02*
X123571000Y-111633000D01*
X101092000Y-120142000D02*
X101092000Y-121412000D01*
X101092000Y-121412000D02*
X101854000Y-122174000D01*
X114554000Y-122174000D02*
X123571000Y-113157000D01*
X101854000Y-122174000D02*
X114554000Y-122174000D01*
%TO.N,/F2R2_SAFETY_SERVO*%
X143891000Y-112903000D02*
X128912000Y-127882000D01*
X143891000Y-111633000D02*
X143891000Y-112903000D01*
X128912000Y-127882000D02*
X128912000Y-129540000D01*
%TO.N,/F2R1_SAFETY_SERVO*%
X126412000Y-127842000D02*
X126412000Y-129540000D01*
X141351000Y-112903000D02*
X126412000Y-127842000D01*
X141351000Y-111633000D02*
X141351000Y-112903000D01*
%TO.N,/F2R2_TRIGGER_SERVO*%
X138811000Y-111633000D02*
X138811000Y-112903000D01*
X123912000Y-127802000D02*
X123912000Y-129540000D01*
X138811000Y-112903000D02*
X123912000Y-127802000D01*
%TO.N,/F2R1_TRIGGER_SERVO*%
X121412000Y-127762000D02*
X121412000Y-129540000D01*
X136271000Y-111633000D02*
X136271000Y-112903000D01*
X136271000Y-112903000D02*
X121412000Y-127762000D01*
%TO.N,/F3R2_SAFETY_SERVO*%
X144152000Y-125342000D02*
X144152000Y-129540000D01*
X156591000Y-111633000D02*
X156591000Y-112903000D01*
X156591000Y-112903000D02*
X144152000Y-125342000D01*
%TO.N,/F3R1_SAFETY_SERVO*%
X151511000Y-112903000D02*
X141652000Y-122762000D01*
X141652000Y-122762000D02*
X141652000Y-129540000D01*
X151511000Y-111633000D02*
X151511000Y-112903000D01*
%TO.N,/F3R2_TRIGGER_SERVO*%
X139152000Y-122722000D02*
X139152000Y-129540000D01*
X148971000Y-112903000D02*
X139152000Y-122722000D01*
X148971000Y-111633000D02*
X148971000Y-112903000D01*
%TO.N,/F3R1_TRIGGER_SERVO*%
X136652000Y-122682000D02*
X136652000Y-129540000D01*
X146431000Y-112903000D02*
X136652000Y-122682000D01*
X146431000Y-111633000D02*
X146431000Y-112903000D01*
%TO.N,/GPS_RX*%
X98676000Y-104264000D02*
X103372000Y-99568000D01*
X103372000Y-99568000D02*
X129794000Y-99568000D01*
X129794000Y-99568000D02*
X131191000Y-98171000D01*
X131191000Y-98171000D02*
X131191000Y-96393000D01*
X98676000Y-112043000D02*
X98676000Y-104264000D01*
%TO.N,/GPS_TX*%
X131318000Y-100584000D02*
X106426000Y-100584000D01*
X101176000Y-105834000D02*
X101176000Y-112043000D01*
X133731000Y-96393000D02*
X133731000Y-98171000D01*
X106426000Y-100584000D02*
X101176000Y-105834000D01*
X133731000Y-98171000D02*
X131318000Y-100584000D01*
D32*
%TO.N,/LED_ALIVE*%
X185166000Y-103883000D02*
X183645000Y-102362000D01*
X173482000Y-102362000D02*
X169291000Y-98171000D01*
X183645000Y-102362000D02*
X173482000Y-102362000D01*
X169291000Y-98171000D02*
X169291000Y-96393000D01*
%TO.N,/LED_DBG*%
X166751000Y-98933000D02*
X166751000Y-96393000D01*
X171701000Y-103883000D02*
X166751000Y-98933000D01*
X181356000Y-103883000D02*
X171701000Y-103883000D01*
D33*
%TO.N,/F1R1_TOP_SW*%
X157226000Y-75438000D02*
X155702000Y-73914000D01*
X130810000Y-73914000D02*
X123698000Y-66802000D01*
X123698000Y-64062000D02*
X123644000Y-64008000D01*
X123698000Y-66802000D02*
X123698000Y-64062000D01*
X155702000Y-73914000D02*
X130810000Y-73914000D01*
%TO.N,/F1R1_SAFETY_SW*%
X134874000Y-72898000D02*
X157226000Y-72898000D01*
X128644000Y-66668000D02*
X134874000Y-72898000D01*
X157226000Y-72898000D02*
X159766000Y-75438000D01*
X128644000Y-64008000D02*
X128644000Y-66668000D01*
%TO.N,/LEDS_DRONE*%
X196596000Y-112014000D02*
X180975000Y-96393000D01*
X180975000Y-96393000D02*
X176911000Y-96393000D01*
X203217000Y-118364000D02*
X199390000Y-118364000D01*
X196596000Y-115570000D02*
X196596000Y-112014000D01*
X199390000Y-118364000D02*
X196596000Y-115570000D01*
%TO.N,/ARM_SW*%
X191302000Y-129540000D02*
X191302000Y-129391000D01*
X176911000Y-111633000D02*
X176911000Y-115000000D01*
X191302000Y-129391000D02*
X176911000Y-115000000D01*
%TO.N,/MENU4_SW*%
X179886000Y-123752000D02*
X174371000Y-118237000D01*
X174371000Y-118237000D02*
X174371000Y-111633000D01*
X179886000Y-129540000D02*
X179886000Y-123752000D01*
%TO.N,/MENU3_SW*%
X174886000Y-129540000D02*
X174886000Y-121546000D01*
X174886000Y-121546000D02*
X171831000Y-118491000D01*
X171831000Y-118491000D02*
X171831000Y-111633000D01*
%TO.N,/MENU2_SW*%
X169291000Y-118745000D02*
X169291000Y-111633000D01*
X169886000Y-119340000D02*
X169291000Y-118745000D01*
X169886000Y-129540000D02*
X169886000Y-119340000D01*
D32*
%TO.N,/BAT_MEAS*%
X126238000Y-83816000D02*
X126234000Y-83820000D01*
D33*
X126111000Y-92583000D02*
X126111000Y-96393000D01*
D32*
X126234000Y-92403000D02*
X126287000Y-92456000D01*
X126238000Y-79948500D02*
X126238000Y-83816000D01*
X126234000Y-83820000D02*
X126234000Y-92403000D01*
D33*
X126234000Y-92460000D02*
X126111000Y-92583000D01*
%TO.N,/MENU1_SW*%
X164886000Y-120610000D02*
X166751000Y-118745000D01*
X166751000Y-118745000D02*
X166751000Y-111633000D01*
X164886000Y-129540000D02*
X164886000Y-120610000D01*
%TO.N,/SPI_SCK*%
X99314000Y-114808000D02*
X108712000Y-114808000D01*
X108712000Y-114808000D02*
X115824000Y-107696000D01*
X96092000Y-120142000D02*
X96012000Y-120062000D01*
X96012000Y-118110000D02*
X99314000Y-114808000D01*
X115824000Y-107696000D02*
X160274000Y-107696000D01*
X160274000Y-107696000D02*
X164211000Y-111633000D01*
X96012000Y-120062000D02*
X96012000Y-118110000D01*
%TO.N,/SPI_MOSI*%
X161544000Y-111506000D02*
X161544000Y-110490000D01*
X100076000Y-117348000D02*
X108458000Y-117348000D01*
X161671000Y-111633000D02*
X161544000Y-111506000D01*
X98592000Y-118832000D02*
X100076000Y-117348000D01*
X160274000Y-109220000D02*
X116586000Y-109220000D01*
X161544000Y-110490000D02*
X160274000Y-109220000D01*
X108458000Y-117348000D02*
X116586000Y-109220000D01*
X98592000Y-120142000D02*
X98592000Y-118832000D01*
%TO.N,/LEDS_BAT_IND*%
X159131000Y-112903000D02*
X159131000Y-111633000D01*
X154646000Y-129540000D02*
X154646000Y-117388000D01*
X154646000Y-117388000D02*
X159131000Y-112903000D01*
%TO.N,/F3R2_BOTM_SW*%
X176276000Y-94488000D02*
X174371000Y-96393000D01*
X191476000Y-104100000D02*
X181864000Y-94488000D01*
X203200000Y-104100000D02*
X191476000Y-104100000D01*
X181864000Y-94488000D02*
X176276000Y-94488000D01*
%TO.N,/F3R2_SAFETY_SW*%
X182880000Y-93472000D02*
X174752000Y-93472000D01*
X203200000Y-99100000D02*
X188508000Y-99100000D01*
X174752000Y-93472000D02*
X171831000Y-96393000D01*
X188508000Y-99100000D02*
X182880000Y-93472000D01*
%TO.N,/F3R2_TOP_SW*%
X177292000Y-90424000D02*
X175006000Y-88138000D01*
X192532000Y-90424000D02*
X177292000Y-90424000D01*
X196208000Y-94100000D02*
X192532000Y-90424000D01*
X203200000Y-94100000D02*
X196208000Y-94100000D01*
%TO.N,/F3R1_BOTM_SW*%
X174244000Y-86360000D02*
X172466000Y-88138000D01*
X203454000Y-81708000D02*
X196676000Y-81708000D01*
X192024000Y-86360000D02*
X174244000Y-86360000D01*
X196676000Y-81708000D02*
X192024000Y-86360000D01*
%TO.N,/F3R1_SAFETY_SW*%
X191008000Y-84836000D02*
X173228000Y-84836000D01*
X199136000Y-76708000D02*
X191008000Y-84836000D01*
X203454000Y-76708000D02*
X199136000Y-76708000D01*
X173228000Y-84836000D02*
X169926000Y-88138000D01*
%TO.N,/F3R1_TOP_SW*%
X167386000Y-88138000D02*
X171704000Y-83820000D01*
X171704000Y-83820000D02*
X189484000Y-83820000D01*
X201596000Y-71708000D02*
X189484000Y-83820000D01*
X203454000Y-71708000D02*
X201596000Y-71708000D01*
%TO.N,/F2R2_BOTM_SW*%
X193468000Y-64008000D02*
X193468000Y-71454000D01*
X193468000Y-71454000D02*
X182372000Y-82550000D01*
X170434000Y-82550000D02*
X182372000Y-82550000D01*
X164846000Y-88138000D02*
X170434000Y-82550000D01*
%TO.N,/F2R2_SAFETY_SW*%
X188468000Y-64008000D02*
X188468000Y-73660000D01*
X169164000Y-81280000D02*
X162306000Y-88138000D01*
X188468000Y-73660000D02*
X180848000Y-81280000D01*
X180848000Y-81280000D02*
X169164000Y-81280000D01*
%TO.N,/F1R1_BOTM_SW*%
X158496000Y-71628000D02*
X162306000Y-75438000D01*
X138430000Y-71628000D02*
X141478000Y-71628000D01*
X133644000Y-64008000D02*
X133644000Y-66842000D01*
X133644000Y-66842000D02*
X138430000Y-71628000D01*
X141478000Y-71628000D02*
X158496000Y-71628000D01*
%TO.N,/F1R2_TOP_SW*%
X143456000Y-64008000D02*
X143456000Y-66748000D01*
X143456000Y-66748000D02*
X147066000Y-70358000D01*
X159766000Y-70358000D02*
X164846000Y-75438000D01*
X147066000Y-70358000D02*
X159766000Y-70358000D01*
%TO.N,/F1R2_SAFETY_SW*%
X167386000Y-75438000D02*
X161290000Y-69342000D01*
X148456000Y-66668000D02*
X148456000Y-64008000D01*
X161290000Y-69342000D02*
X151130000Y-69342000D01*
X151130000Y-69342000D02*
X148456000Y-66668000D01*
%TO.N,/F1R2_BOTM_SW*%
X154686000Y-68072000D02*
X162560000Y-68072000D01*
X162560000Y-68072000D02*
X169926000Y-75438000D01*
X153456000Y-66842000D02*
X154686000Y-68072000D01*
X153456000Y-64008000D02*
X153456000Y-66842000D01*
%TO.N,/F2_R1_TOP_SW*%
X163442000Y-66414000D02*
X163442000Y-64008000D01*
X172466000Y-75438000D02*
X163442000Y-66414000D01*
%TO.N,/F2R1_SAFETY_SW*%
X168442000Y-64008000D02*
X168442000Y-68874000D01*
X168442000Y-68874000D02*
X175006000Y-75438000D01*
%TO.N,/F2R1_BOTM_SW*%
X157226000Y-88138000D02*
X166878000Y-78486000D01*
X178054000Y-72898000D02*
X178054000Y-75438000D01*
X166878000Y-78486000D02*
X175006000Y-78486000D01*
X173442000Y-64008000D02*
X173442000Y-68286000D01*
X173442000Y-68286000D02*
X178054000Y-72898000D01*
X175006000Y-78486000D02*
X178054000Y-75438000D01*
%TO.N,/F2R2_TOP_SW*%
X159766000Y-88138000D02*
X167894000Y-80010000D01*
X183468000Y-74850000D02*
X178308000Y-80010000D01*
X167894000Y-80010000D02*
X178308000Y-80010000D01*
X183468000Y-64008000D02*
X183468000Y-74850000D01*
D32*
%TO.N,Net-(D1-K)*%
X112151000Y-91694000D02*
X115062000Y-91694000D01*
X115062000Y-91694000D02*
X115193000Y-91563000D01*
%TO.N,Net-(D4-K)*%
X181356000Y-106683000D02*
X181356000Y-108900500D01*
%TO.N,Net-(D5-K)*%
X185166000Y-106683000D02*
X185166000Y-108900500D01*
D33*
%TO.N,/RST_MCP*%
X154686000Y-90678000D02*
X154686000Y-88138000D01*
X148971000Y-96393000D02*
X154686000Y-90678000D01*
%TD*%
%TA.AperFunction,Conductor*%
%TO.N,+24V*%
G36*
X109927825Y-62249685D02*
G01*
X109973580Y-62302489D01*
X109984754Y-62351183D01*
X110236000Y-73406001D01*
X113200120Y-75983496D01*
X116035367Y-78448928D01*
X116073038Y-78507770D01*
X116078000Y-78542497D01*
X116078000Y-83188000D01*
X116058315Y-83255039D01*
X116005511Y-83300794D01*
X115954000Y-83312000D01*
X108532579Y-83312000D01*
X108465540Y-83292315D01*
X108423044Y-83246121D01*
X105877593Y-78448926D01*
X101868463Y-70893258D01*
X101854000Y-70835143D01*
X101854000Y-62354000D01*
X101873685Y-62286961D01*
X101926489Y-62241206D01*
X101978000Y-62230000D01*
X109860786Y-62230000D01*
X109927825Y-62249685D01*
G37*
%TD.AperFunction*%
%TD*%
%TA.AperFunction,Conductor*%
%TO.N,+5V*%
G36*
X122371039Y-78505685D02*
G01*
X122416794Y-78558489D01*
X122428000Y-78610000D01*
X122428000Y-92646856D01*
X122408315Y-92713895D01*
X122376933Y-92747139D01*
X119634000Y-94741998D01*
X119634000Y-98174000D01*
X119614315Y-98241039D01*
X119561511Y-98286794D01*
X119510000Y-98298000D01*
X116456000Y-98298000D01*
X116388961Y-98278315D01*
X116343206Y-98225511D01*
X116332000Y-98174000D01*
X116332000Y-95009323D01*
X116334830Y-94982982D01*
X116828110Y-92713895D01*
X118872000Y-83312000D01*
X118872000Y-78610000D01*
X118891685Y-78542961D01*
X118944489Y-78497206D01*
X118996000Y-78486000D01*
X122304000Y-78486000D01*
X122371039Y-78505685D01*
G37*
%TD.AperFunction*%
%TD*%
M02*
