M48
; DRILL file {KiCad 7.0.5-7.0.5~ubuntu20.04.1} date mar 11 lug 2023, 16:02:26
; FORMAT={-:-/ absolute / metric / decimal}
; #@! TF.CreationDate,2023-07-11T16:02:26+02:00
; #@! TF.GenerationSoftware,Kicad,Pcbnew,7.0.5-7.0.5~ubuntu20.04.1
; #@! TF.FileFunction,MixedPlating,1,2
FMAT,2
METRIC
; #@! TA.AperFunction,Plated,PTH,ViaDrill
T1C0.300
; #@! TA.AperFunction,Plated,PTH,ComponentDrill
T2C0.762
; #@! TA.AperFunction,Plated,PTH,ComponentDrill
T3C0.950
; #@! TA.AperFunction,Plated,PTH,ComponentDrill
T4C1.000
; #@! TA.AperFunction,Plated,PTH,ComponentDrill
T5C1.100
; #@! TA.AperFunction,Plated,PTH,ComponentDrill
T6C4.550
; #@! TA.AperFunction,NonPlated,NPTH,ComponentDrill
T7C3.200
%
G90
G05
T1
X96.012Y-97.79
X98.552Y-102.108
X101.092Y-99.822
X102.616Y-106.172
X103.378Y-97.79
X106.934Y-105.664
X108.712Y-107.95
X112.151Y-86.991
X118.364Y-114.046
X124.46Y-88.138
X128.016Y-88.138
X130.81Y-92.456
X131.255Y-83.82
X132.08Y-102.362
X136.652Y-102.362
X187.198Y-111.76
T2
X144.526Y-75.438
X144.526Y-88.138
X147.066Y-75.438
X147.066Y-88.138
X149.606Y-75.438
X149.606Y-88.138
X152.146Y-75.438
X152.146Y-88.138
X154.686Y-75.438
X154.686Y-88.138
X157.226Y-75.438
X157.226Y-88.138
X159.766Y-75.438
X159.766Y-88.138
X162.306Y-75.438
X162.306Y-88.138
X164.846Y-75.438
X164.846Y-88.138
X167.386Y-75.438
X167.386Y-88.138
X169.926Y-75.438
X169.926Y-88.138
X172.466Y-75.438
X172.466Y-88.138
X175.006Y-75.438
X175.006Y-88.138
T3
X95.798Y-84.582
X96.012Y-92.964
X96.092Y-120.142
X96.132Y-112.014
X98.298Y-84.582
X98.512Y-92.964
X98.592Y-120.142
X98.632Y-112.014
X100.798Y-84.582
X101.012Y-92.964
X101.092Y-120.142
X101.132Y-112.014
X103.298Y-84.582
X103.512Y-92.964
X103.592Y-120.142
X103.632Y-112.014
X106.132Y-112.014
X106.426Y-129.54
X108.632Y-112.014
X108.926Y-129.54
X111.426Y-129.54
X113.926Y-129.54
X121.412Y-129.54
X123.644Y-64.008
X123.912Y-129.54
X126.144Y-64.008
X126.412Y-129.54
X128.644Y-64.008
X128.912Y-129.54
X131.144Y-64.008
X133.644Y-64.008
X136.144Y-64.008
X136.652Y-129.54
X139.152Y-129.54
X141.652Y-129.54
X143.456Y-64.008
X144.152Y-129.54
X145.956Y-64.008
X148.456Y-64.008
X150.956Y-64.008
X152.146Y-129.54
X153.456Y-64.008
X154.646Y-129.54
X155.956Y-64.008
X157.146Y-129.54
X163.442Y-64.008
X164.886Y-129.54
X165.942Y-64.008
X167.386Y-129.54
X168.442Y-64.008
X169.886Y-129.54
X170.942Y-64.008
X172.386Y-129.54
X173.442Y-64.008
X174.886Y-129.54
X175.942Y-64.008
X177.386Y-129.54
X179.886Y-129.54
X182.386Y-129.54
X183.468Y-64.008
X185.968Y-64.008
X188.468Y-64.008
X190.968Y-64.008
X193.468Y-64.008
X195.968Y-64.008
X203.2Y-94.1
X203.2Y-96.6
X203.2Y-99.1
X203.2Y-101.6
X203.2Y-104.1
X203.2Y-106.6
X203.217Y-115.864
X203.217Y-118.364
X203.217Y-120.864
X203.454Y-71.708
X203.454Y-74.208
X203.454Y-76.708
X203.454Y-79.208
X203.454Y-81.708
X203.454Y-84.208
T4
X95.758Y-75.946
X98.258Y-75.946
X115.062Y-80.772
X117.602Y-80.772
X120.142Y-80.772
X191.302Y-129.54
X193.802Y-129.54
T5
X118.491Y-96.393
X118.491Y-111.633
X121.031Y-96.393
X121.031Y-111.633
X123.571Y-96.393
X123.571Y-111.633
X126.111Y-96.393
X126.111Y-111.633
X128.651Y-96.393
X128.651Y-111.633
X131.191Y-96.393
X131.191Y-111.633
X133.731Y-96.393
X133.731Y-111.633
X136.271Y-96.393
X136.271Y-111.633
X138.811Y-96.393
X138.811Y-111.633
X141.351Y-96.393
X141.351Y-111.633
X143.891Y-96.393
X143.891Y-111.633
X146.431Y-96.393
X146.431Y-111.633
X148.971Y-96.393
X148.971Y-111.633
X151.511Y-96.393
X151.511Y-111.633
X154.051Y-96.393
X154.051Y-111.633
X156.591Y-96.393
X156.591Y-111.633
X159.131Y-96.393
X159.131Y-111.633
X161.671Y-96.393
X161.671Y-111.633
X164.211Y-96.393
X164.211Y-111.633
X166.751Y-96.393
X166.751Y-111.633
X169.291Y-96.393
X169.291Y-111.633
X171.831Y-96.393
X171.831Y-111.633
X174.371Y-96.393
X174.371Y-111.633
X176.911Y-96.393
X176.911Y-111.633
T6
X106.636Y-66.548
X113.836Y-66.548
T7
X95.606Y-63.748
X95.606Y-129.748
X203.606Y-63.748
X203.606Y-129.748
T0
M30
